<?xml version="1.0" standalone="no"?>
<!DOCTYPE svg PUBLIC "-//W3C//DTD SVG 20010904//EN"
 "http://www.w3.org/TR/2001/REC-SVG-20010904/DTD/svg10.dtd">
<svg version="1.0" xmlns="http://www.w3.org/2000/svg"
 width="677.000000pt" height="369.000000pt" viewBox="0 0 677.000000 369.000000"
 preserveAspectRatio="xMidYMid meet">

<g transform="translate(0.000000,369.000000) scale(0.100000,-0.100000)"
fill="#000000" stroke="none">
<path d="M1605 2982 c-27 -16 -111 -64 -185 -107 -127 -74 -179 -104 -405
-234 -49 -28 -97 -55 -105 -61 -8 -5 -51 -30 -95 -55 -44 -25 -116 -67 -160
-93 l-80 -48 0 -609 0 -609 215 -123 c118 -68 271 -155 340 -195 69 -39 141
-80 160 -91 19 -11 80 -46 135 -77 55 -31 128 -73 162 -93 67 -40 88 -44 118
-23 11 7 37 23 58 35 20 11 54 31 75 42 36 21 314 180 587 337 72 41 175 100
230 131 l100 56 3 642 2 641 -47 39 c-27 21 -68 53 -93 71 -25 18 -121 89
-214 158 -93 68 -176 124 -184 124 -9 0 -44 -16 -80 -35 l-64 -36 -47 28 c-74
46 -82 50 -171 100 -47 26 -93 52 -102 58 -28 16 -98 55 -101 55 -1 0 -24 -13
-52 -28z m238 -134 c89 -50 166 -95 170 -99 8 -7 -40 -34 -317 -179 -65 -34
-139 -74 -165 -89 -76 -46 -396 -221 -404 -221 -4 0 50 71 119 158 69 86 136
169 147 185 217 278 264 336 275 336 7 1 86 -40 175 -91z m-310 20 c-5 -7 -41
-53 -79 -103 -38 -49 -78 -101 -89 -116 -17 -22 -100 -126 -342 -429 l-36 -45
6 -343 c5 -341 5 -342 -16 -357 -30 -21 -44 -19 -50 8 -3 12 -31 94 -62 182
-31 88 -67 192 -80 230 -12 39 -53 157 -89 263 -36 106 -66 194 -66 196 0 2
19 15 43 28 191 109 408 234 437 253 19 12 100 59 180 105 80 46 165 96 189
112 47 30 70 37 54 16z m637 -128 c0 -5 -9 -34 -21 -65 -23 -62 -16 -59 -161
-75 -138 -15 -138 -14 -46 34 45 25 112 60 148 80 70 38 80 41 80 26z m340
-168 c56 -41 100 -76 98 -78 -2 -2 -26 3 -53 11 -194 54 -231 66 -243 82 -7
10 -20 43 -28 73 -9 30 -18 64 -21 74 -5 20 -1 17 247 -162z m-269 98 c13 -38
21 -72 18 -74 -9 -10 -90 17 -86 28 3 6 13 35 23 64 10 28 20 52 21 52 1 0 12
-31 24 -70z m-131 -100 c0 -5 -12 -38 -26 -74 -21 -50 -37 -72 -75 -101 l-49
-37 -42 25 c-24 13 -81 46 -128 72 -47 26 -87 50 -89 52 -12 10 25 18 191 43
218 33 218 33 218 20z m178 -60 c13 -32 56 -173 69 -226 4 -18 -5 -26 -57 -51
l-63 -30 -110 62 c-61 34 -113 67 -114 72 -2 6 16 26 41 44 38 27 48 41 62 88
9 31 22 68 30 82 l13 27 57 -16 c49 -14 59 -21 72 -52z m157 -15 c169 -47 205
-58 205 -65 0 -7 -238 -140 -251 -140 -5 0 -9 6 -9 13 0 8 -13 56 -30 107 -35
110 -37 125 -12 115 9 -4 53 -17 97 -30z m-647 -136 c81 -45 167 -94 192 -109
25 -15 67 -39 94 -55 l49 -27 -44 -28 c-78 -48 -77 -49 -222 31 -73 40 -149
84 -171 97 -45 28 -61 25 -137 -20 -30 -18 -76 -44 -102 -58 -26 -14 -47 -28
-47 -32 0 -4 53 -37 117 -73 l117 -66 50 27 c28 15 63 35 78 46 14 10 31 18
37 18 19 0 111 -55 108 -64 -4 -13 -258 -156 -275 -156 -8 0 -39 15 -70 34
-32 19 -137 81 -235 139 l-178 104 43 25 c24 14 81 46 128 72 47 26 92 51 100
57 41 26 206 118 213 119 5 0 75 -37 155 -81z m882 8 c0 -2 -21 -59 -46 -128
-25 -68 -62 -168 -81 -222 -20 -54 -39 -94 -43 -90 -13 14 -95 301 -89 307 2
2 58 34 124 70 109 60 135 72 135 63z m29 -611 c1 -296 -2 -507 -7 -510 -5 -3
-56 26 -113 65 -57 39 -125 84 -150 101 l-46 31 34 91 c19 50 51 138 72 196
70 188 152 407 190 503 6 15 12 27 14 27 2 0 4 -227 6 -504z m-1018 427 l40
-27 -38 -23 c-47 -28 -49 -28 -97 1 l-39 24 39 25 c21 14 42 26 47 26 4 1 26
-11 48 -26z m694 15 c2 -7 27 -88 55 -179 l52 -167 -26 -63 c-13 -35 -44 -116
-67 -179 -55 -152 -55 -152 -164 -286 -75 -93 -106 -123 -152 -149 -245 -135
-422 -234 -444 -248 -13 -8 -49 9 -165 78 -82 48 -165 98 -184 110 -19 12
-107 65 -195 118 -225 134 -210 115 -129 171 37 27 73 50 80 53 6 2 143 -68
303 -157 l292 -161 77 42 c42 23 93 51 112 62 70 39 303 167 305 167 2 0 32
17 66 39 l64 38 3 334 2 334 48 27 c54 31 61 33 67 16z m-1708 -141 c22 -67
80 -235 127 -374 47 -138 86 -255 86 -260 0 -9 -231 -171 -251 -176 -6 -1 -10
159 -12 466 -1 257 0 467 3 467 3 0 24 -55 47 -123z m628 -97 c72 -42 164 -97
205 -122 l75 -46 3 -137 3 -137 -23 7 c-13 4 -30 13 -38 19 -8 6 -35 22 -60
35 -73 39 -74 41 -40 62 24 15 30 26 30 53 0 40 -3 42 -210 158 -69 38 -133
77 -142 86 -13 11 -18 30 -18 72 0 31 3 60 7 63 3 4 22 -3 42 -14 20 -12 95
-56 166 -99z m885 -145 c0 -140 -3 -255 -7 -255 -4 0 -35 17 -70 38 l-63 37 0
181 0 181 57 37 c32 20 64 36 70 36 10 0 13 -57 13 -255z m-220 -17 l0 -153
-132 -72 c-73 -39 -133 -71 -135 -70 -4 5 -8 286 -3 289 9 7 104 64 120 71 8
4 44 25 80 47 36 21 66 39 68 39 1 1 2 -68 2 -151z m-800 9 l55 -33 0 -73 0
-73 -58 -35 c-31 -20 -59 -34 -62 -31 -3 2 -8 49 -11 105 -7 97 0 173 14 173
4 0 32 -15 62 -33z m198 -267 c31 -16 93 -49 137 -74 l80 -44 3 -71 3 -72 -28
15 c-111 57 -378 207 -378 212 0 7 97 62 113 63 7 1 38 -12 70 -29z m700 -4
c59 -36 59 -37 -18 -75 -25 -12 -63 -32 -85 -44 -120 -66 -254 -137 -258 -137
-10 0 -17 101 -9 117 11 18 279 171 302 172 8 0 39 -14 68 -33z m510 -281 c91
-60 101 -69 85 -80 -10 -6 -146 -85 -303 -175 -157 -90 -341 -196 -410 -235
-172 -99 -178 -102 -164 -84 41 54 156 197 324 404 108 132 208 257 224 277
l28 37 56 -38 c32 -20 103 -68 160 -106z m-1523 -60 c94 -56 259 -155 368
-220 l198 -118 32 17 c18 9 46 24 62 35 17 10 93 53 170 96 77 43 145 80 150
83 13 8 -32 -51 -215 -282 -85 -107 -158 -195 -162 -195 -3 -1 -35 15 -70 36
-34 20 -126 72 -203 116 -77 44 -185 105 -240 137 -292 166 -447 255 -478 276
-16 10 -6 19 79 77 84 57 100 64 118 55 12 -6 98 -57 191 -113z"/>
<path d="M3200 2150 l0 -400 280 0 280 0 0 75 0 75 -190 0 -190 0 -2 323 -3
322 -87 3 -88 3 0 -401z"/>
<path d="M3837 2543 c-4 -3 -7 -123 -7 -266 0 -202 3 -270 15 -310 48 -162
159 -235 343 -225 144 8 220 54 279 168 l28 55 3 293 3 293 -83 -3 -83 -3 -5
-270 c-3 -169 -9 -279 -17 -295 -37 -82 -164 -111 -247 -57 -13 9 -31 33 -42
54 -17 34 -19 68 -22 306 l-4 267 -77 0 c-43 0 -81 -3 -84 -7z"/>
<path d="M4637 2543 c-4 -3 -7 -183 -7 -400 l0 -393 85 0 85 0 0 238 c1 228 1
236 18 207 9 -16 56 -104 103 -195 l86 -165 49 -3 49 -3 28 53 c16 29 63 119
105 200 l77 148 5 -238 5 -237 78 -3 77 -3 0 401 0 400 -72 0 c-40 0 -78 -4
-84 -8 -11 -6 -120 -209 -216 -399 -23 -46 -45 -83 -50 -83 -4 0 -21 26 -36
58 -48 97 -184 355 -209 395 l-23 37 -73 0 c-41 0 -77 -3 -80 -7z"/>
<path d="M5620 2150 l0 -400 289 0 288 0 6 67 c3 38 3 71 0 75 -2 5 -96 8
-209 8 l-204 0 0 90 0 90 175 0 175 0 0 70 0 70 -172 2 -173 3 -3 88 -3 87
201 0 201 0 -3 73 -3 72 -282 3 -283 2 0 -400z"/>
<path d="M3202 1523 l3 -48 138 2 c75 0 137 -1 137 -4 0 -2 -31 -43 -70 -89
-57 -69 -70 -92 -70 -120 0 -33 1 -34 38 -34 98 -1 162 -40 162 -101 0 -67
-45 -99 -138 -99 -47 0 -72 6 -117 30 -31 16 -61 27 -66 24 -16 -10 -41 -65
-35 -79 3 -8 29 -27 58 -42 48 -25 63 -28 163 -28 103 0 113 2 151 27 62 40
87 81 92 150 3 33 -1 71 -8 88 -18 42 -83 98 -124 106 -20 3 -36 8 -36 11 0 2
32 42 70 88 61 74 70 89 70 124 l0 41 -211 0 -210 0 3 -47z"/>
<path d="M3750 1256 l0 -316 170 0 c145 0 177 3 222 20 69 26 133 87 166 158
54 117 27 278 -62 367 -69 68 -108 79 -313 83 l-183 4 0 -316z m383 183 c61
-40 88 -97 89 -184 0 -89 -29 -148 -95 -188 -44 -27 -59 -30 -158 -35 l-109
-5 0 222 0 221 113 0 c110 0 115 -1 160 -31z"/>
</g>
</svg>
